<?xml version="1.0" encoding="UTF-8"?>
<svg id="_レイヤー_1" data-name="レイヤー 1" xmlns="http://www.w3.org/2000/svg" viewBox="0 0 97.72 97.72">
  <defs>
    <style>
      .cls-1 {
        fill: #231815;
      }

      .cls-1, .cls-2 {
        stroke-width: 0px;
      }

      .cls-3 {
        fill: none;
        stroke: #231815;
        stroke-miterlimit: 10;
        stroke-width: 3.72px;
      }

      .cls-2 {
        fill: #edc811;
      }
    </style>
  </defs>
  <path class="cls-2" d="M73.65,8.93c.2.92.52,2.45.92,4.34,1.82,8.72,3.16,15.9,3.34,16.94,1.69,9.85-4.25,32.67-22.17,47.85-4.24,3.59-12.64,9.71-25.53,12.99,3.95,1.99,10.69,4.7,19.26,4.8,22.36.26,35.99-17.45,37.1-18.94,12-16.13,9-33.98,8.51-36.62-3.71-19.99-18.97-29.83-21.43-31.37Z"/>
  <path class="cls-1" d="M89.66,63.51c-5.35-4.51-12.17-8.81-19.62-12.38-8.92-3.78-23.5-8.81-32.94-10.07,7.24-9.97,14.27-21.5,17.83-28.22.73-1.36,1.05-2.73,1.05-3.88,0-2.52-1.78-4.2-4.72-4.2-1.05,0-6.29.94-9.34,1.57-1.78.31-3.57.52-5.35.52-1.57,0-3.25-.21-4.72-.52-.21-.1-.52-.1-.73-.1-1.47,0-2.41,1.36-2.41,2.73,0,2.2,2.2,3.46,7.03,3.46,3.25,0,6.92-.73,11.22-1.99.52-.1.94-.21,1.26-.21.42,0,.73.21.73.63,0,2.1-7.87,16.89-17.62,29.69-1.36-.11-2.83-.11-4.2-.11-19.51,0-25.28,6.71-25.28,12.17,0,4.83,4.72,8.5,10.7,8.5s11.01-2.52,21.08-15.42c9.65,1.05,24.76,6.4,34.2,10.59,6.71,3.46,12.8,7.55,17.73,12.27.73.73,1.57,1.05,2.31,1.05,1.68,0,3.15-1.57,3.15-3.36,0-.94-.42-1.89-1.36-2.73ZM14.38,55.4c-3.99,0-5.24-1.99-5.24-3.57,0-3.57,5.87-7.03,18.88-7.03h1.57c-6.19,7.24-10.07,10.59-15.21,10.59Z"/>
  <circle class="cls-3" cx="48.86" cy="48.86" r="47"/>
  <path class="cls-1" d="M74.97,11.77c12.11,25.29,5.15,55.66-18.85,71.13-7.69,5-16.67,8.09-25.93,8.93-2.48.23-4.68-1.6-4.91-4.09-.25-2.59,1.8-4.88,4.4-4.93,16.48-.23,32.49-9.42,40.84-23.81,3.85-6.65,6.11-14.16,6.6-21.86.53-8.26-.86-16.77-3.9-24.59-.47-1.11,1.2-1.91,1.75-.79h0Z"/>
</svg>